<?xml version="1.0" encoding="UTF-8"?>
<svg id="Layer_1" data-name="Layer 1" xmlns="http://www.w3.org/2000/svg" viewBox="0 0 500 580.02">
  <defs>
    <style>
      .cls-1 {
        fill: none;
      }

      .cls-1, .cls-2 {
        stroke: #231f20;
        stroke-miterlimit: 10;
        stroke-width: 16px;
      }

      .cls-3 {
        fill: #fedc41;
      }

      .cls-3, .cls-4, .cls-5 {
        stroke-width: 0px;
      }

      .cls-2 {
        fill: #7968ae;
      }

      .cls-4, .cls-6, .cls-7 {
        fill: #231f20;
      }

      .cls-6 {
        font-family: MinionConceptRoman-Medium, 'Minion Variable Concept';
        font-size: 462.45px;
        font-variation-settings: 'wght' 500, 'opsz' 11;
        font-weight: 500;
      }

      .cls-8 {
        letter-spacing: 0em;
      }

      .cls-7 {
        font-family: MinionConceptRoman-Semibold, 'Minion Variable Concept';
        font-size: 152.19px;
        font-variation-settings: 'wght' 600, 'opsz' 11;
        font-weight: 600;
      }

      .cls-9 {
        letter-spacing: 0em;
      }

      .cls-5 {
        fill: #fff;
      }
    </style>
  </defs>
  <rect id="bg" class="cls-5" width="500" height="500"/>
  <rect class="cls-1" x="31.54" y="31.12" width="440.21" height="440.21" rx="15.72" ry="15.72"/>
  <circle class="cls-2" cx="54.25" cy="53.83" r="22.71"/>
  <circle class="cls-2" cx="449.04" cy="448.62" r="22.71"/>
  <text class="cls-6" transform="translate(76.96 412.14)"><tspan x="0" y="0">I</tspan></text>
  <g>
    <path class="cls-3" d="M286.84,244.07c-4.27,0-8.31-1.77-11.36-4.97-3.16-3-4.92-7.03-4.92-11.31v-103.47c0-4.4,1.67-8.22,4.97-11.36,3.02-3.02,7.05-4.7,11.31-4.7h21.26l30.48-30.41,30.18,30.41h21.25c4.38,0,8.13,1.54,11.46,4.7,3.4,3.32,5.12,7.14,5.12,11.36v103.47c0,4.05-1.86,8.18-5.11,11.35-3.32,3.32-7.07,4.93-11.47,4.93h-103.17ZM388.51,226.29v-100.47h-100.17v100.47h100.17ZM354.26,108.26l-15.69-15.81-15.81,15.81h31.5ZM294.94,214.51l28.81-38.77,20.62,26.03,14.58-17.32,23.01,30.06h-87.02Z"/>
    <path class="cls-4" d="M338.57,79.98l29.56,29.78h21.88c3.99,0,7.39,1.4,10.42,4.29,2.96,2.88,4.66,6.28,4.66,10.27v103.47c0,3.7-1.7,7.39-4.66,10.27-3.03,3.03-6.43,4.51-10.42,4.51h-103.17c-3.7,0-7.39-1.48-10.27-4.51-3.03-2.88-4.51-6.58-4.51-10.27v-103.47c0-3.99,1.48-7.39,4.51-10.27,2.88-2.88,6.58-4.29,10.27-4.29h21.88l29.86-29.78M319.13,109.76h38.73l-19.29-19.44-19.44,19.44M286.84,227.79h103.17v-103.47h-103.17v103.47M323.79,178.2l20.55,25.94,14.56-17.29,20.03,26.16h-81l25.87-34.81M338.58,75.73l-2.13,2.12-28.98,28.91h-20.64c-4.65,0-9.04,1.82-12.37,5.14-3.59,3.43-5.41,7.61-5.41,12.42v103.47c0,4.66,1.91,9.06,5.39,12.39,3.33,3.47,7.73,5.39,12.39,5.39h103.17c4.75,0,8.97-1.81,12.54-5.39,3.51-3.42,5.53-7.95,5.53-12.39v-103.47c0-4.64-1.87-8.82-5.56-12.42-3.64-3.47-7.73-5.14-12.52-5.14h-20.63l-28.68-28.9-2.12-2.13h0ZM326.38,106.76l12.19-12.19,12.09,12.19h-24.28ZM289.84,127.32h97.17v97.47h-97.17v-97.47h0ZM323.72,173.27l-2.33,3.14-25.87,34.81-3.56,4.79h93.04l-3.69-4.82-20.03-26.16-2.27-2.97-2.41,2.86-12.19,14.48-18.27-23.06-2.43-3.07h0Z"/>
  </g>
  <text class="cls-7" transform="translate(250 377.15)"><tspan class="cls-8" x="0" y="0">p</tspan><tspan class="cls-9" x="83.25" y="0">x</tspan></text>
</svg>